<?xml version="1.0" encoding="UTF-8" standalone="no"?>
<!-- Creator: CorelDRAW -->

<svg
   xmlns:dc="http://purl.org/dc/elements/1.1/"
   xmlns:cc="http://creativecommons.org/ns#"
   xmlns:rdf="http://www.w3.org/1999/02/22-rdf-syntax-ns#"
   xmlns:svg="http://www.w3.org/2000/svg"
   xmlns="http://www.w3.org/2000/svg"
   xmlns:sodipodi="http://sodipodi.sourceforge.net/DTD/sodipodi-0.dtd"
   xmlns:inkscape="http://www.inkscape.org/namespaces/inkscape"
   xml:space="preserve"
   width="108.373mm"
   height="99.077011mm"
   version="1.1"
   style="clip-rule:evenodd;fill-rule:evenodd;image-rendering:optimizeQuality;shape-rendering:geometricPrecision;text-rendering:geometricPrecision"
   viewBox="0 0 9660 8333.1657"
   id="svg41"
   sodipodi:docname="цветное сердце.svg"
   inkscape:version="0.92.3 (2405546, 2018-03-11)"><metadata
   id="metadata45"><rdf:RDF><cc:Work
       rdf:about=""><dc:format>image/svg+xml</dc:format><dc:type
         rdf:resource="http://purl.org/dc/dcmitype/StillImage" /><dc:title></dc:title></cc:Work></rdf:RDF></metadata><sodipodi:namedview
   pagecolor="#ffffff"
   bordercolor="#666666"
   borderopacity="1"
   objecttolerance="10"
   gridtolerance="10"
   guidetolerance="10"
   inkscape:pageopacity="0"
   inkscape:pageshadow="2"
   inkscape:window-width="1280"
   inkscape:window-height="972"
   id="namedview43"
   showgrid="false"
   fit-margin-top="0"
   fit-margin-left="0"
   fit-margin-right="0"
   fit-margin-bottom="0"
   inkscape:zoom="0.5"
   inkscape:cx="167.18163"
   inkscape:cy="-166.78018"
   inkscape:window-x="-8"
   inkscape:window-y="-8"
   inkscape:window-maximized="1"
   inkscape:current-layer="svg41" />
 <defs
   id="defs4">
  <style
   type="text/css"
   id="style2">
   <![CDATA[
    .fil4 {fill:#656AAE}
    .fil1 {fill:#69B7E7}
    .fil2 {fill:#83BD4D}
    .fil3 {fill:#843B8D}
    .fil6 {fill:#BC61A2}
    .fil0 {fill:#E7DA32}
    .fil5 {fill:#EE7541}
   ]]>
  </style>
 </defs>
 <g
   id="Слой_x0020_1"
   transform="translate(0,-249.11061)">
  <metadata
   id="CorelCorpID_0Corel-Layer" />
  <g
   id="_934752544">
   <g
   id="g21">
    <path
   class="fil0"
   d="m 6831,0 c 1562,0 2829,1267 2829,2829 0,782 -317,1490 -829,2002 L 6831,6831 4831,4831 C 4318,4319 4001,3611 4001,2829 4001,1267 5268,0 6831,0 Z"
   id="path7"
   inkscape:connector-curvature="0"
   style="fill:#e7da32" />
    <path
   class="fil1"
   d="m 2829,0 c 1563,0 2830,1267 2830,2829 0,782 -317,1490 -830,2002 L 2829,6831 829,4831 C 317,4319 0,3611 0,2829 0,1267 1267,0 2829,0 Z"
   id="path9"
   inkscape:connector-curvature="0"
   style="fill:#69b7e7" />
    <path
   class="fil2"
   d="m 4097,2096 c 234,-62 480,-95 733,-95 253,0 499,33 733,95 -130,-486 -387,-921 -733,-1267 -346,346 -603,781 -733,1267 z"
   id="path11"
   inkscape:connector-curvature="0"
   style="fill:#83bd4d" />
    <path
   class="fil3"
   d="m 5563,2096 c -234,-62 -480,-95 -733,-95 -253,0 -499,33 -733,95 -62,234 -96,480 -96,733 0,782 317,1489 829,2001 512,-512 829,-1219 829,-2001 0,-253 -34,-499 -96,-733 z"
   id="path13"
   inkscape:connector-curvature="0"
   style="fill:#843b8d" />
    <path
   class="fil4"
   d="m 4830,4830 c -512,-512 -829,-1219 -829,-2001 0,-253 34,-499 96,-733 -1207,323 -2096,1425 -2096,2734 0,779 314,1484 824,1996 l 4,5 2000,-2000 z"
   id="path15"
   inkscape:connector-curvature="0"
   style="fill:#656aae" />
    <path
   class="fil5"
   d="m 5659,2829 c 0,782 -317,1489 -829,2001 l 2001,2001 4,-5 c 509,-512 824,-1217 824,-1996 0,-1309 -889,-2411 -2096,-2734 62,234 96,480 96,733 z"
   id="path17"
   inkscape:connector-curvature="0"
   style="fill:#ee7541" />
    <rect
   class="fil6"
   transform="matrix(0.400879,-0.400879,0.400879,0.400879,2829.33,6830.6)"
   width="4991"
   height="4991"
   id="rect19"
   x="0"
   y="0"
   style="fill:#bc61a2" />
   </g>
   <g
   id="g37">
    <path
   class="fil0"
   d="m 6831,0 c 1562,0 2829,1267 2829,2829 0,782 -317,1490 -829,2002 L 6831,6831 4831,4831 C 4318,4319 4001,3611 4001,2829 4001,1267 5268,0 6831,0 Z"
   id="path23"
   inkscape:connector-curvature="0"
   style="fill:#e7da32" />
    <path
   class="fil1"
   d="m 2829,0 c 1563,0 2830,1267 2830,2829 0,782 -317,1490 -830,2002 L 2829,6831 829,4831 C 317,4319 0,3611 0,2829 0,1267 1267,0 2829,0 Z"
   id="path25"
   inkscape:connector-curvature="0"
   style="fill:#69b7e7" />
    <path
   class="fil2"
   d="m 4097,2096 c 234,-62 480,-95 733,-95 253,0 499,33 733,95 -130,-486 -387,-921 -733,-1267 -346,346 -603,781 -733,1267 z"
   id="path27"
   inkscape:connector-curvature="0"
   style="fill:#83bd4d" />
    <path
   class="fil3"
   d="m 5563,2096 c -234,-62 -480,-95 -733,-95 -253,0 -499,33 -733,95 -62,234 -96,480 -96,733 0,782 317,1489 829,2001 512,-512 829,-1219 829,-2001 0,-253 -34,-499 -96,-733 z"
   id="path29"
   inkscape:connector-curvature="0"
   style="fill:#843b8d" />
    <path
   class="fil4"
   d="m 4830,4830 c -512,-512 -829,-1219 -829,-2001 0,-253 34,-499 96,-733 -1207,323 -2096,1425 -2096,2734 0,779 314,1484 824,1996 l 4,5 2000,-2000 z"
   id="path31"
   inkscape:connector-curvature="0"
   style="fill:#656aae" />
    <path
   class="fil5"
   d="m 5659,2829 c 0,782 -317,1489 -829,2001 l 2001,2001 4,-5 c 509,-512 824,-1217 824,-1996 0,-1309 -889,-2411 -2096,-2734 62,234 96,480 96,733 z"
   id="path33"
   inkscape:connector-curvature="0"
   style="fill:#ee7541" />
    <rect
   class="fil6"
   transform="matrix(0.400879,-0.400879,0.400879,0.400879,2829.33,6830.6)"
   width="4991"
   height="4991"
   id="rect35"
   x="0"
   y="0"
   style="fill:#bc61a2" />
   </g>
  </g>
 </g>
</svg>